<svg width="1600" height="1200" viewBox="0 0 1600 1200" xmlns="http://www.w3.org/2000/svg">
  <rect width="1600" height="1200" fill="#F7F1E4"/>
  <text x="40" y="48" font-family="Cormorant Garamond, serif" font-size="34" font-weight="700" fill="#2D241C">Old Testament Timeline - Components + Styles</text>
  <text x="40" y="76" font-family="Source Sans 3, sans-serif" font-size="14" fill="#6F6254">Import into Figma first. Use as source components and style references.</text>

  <rect x="40" y="110" width="1520" height="2" fill="#C7B8A2"/>

  <text x="40" y="150" font-family="Source Sans 3, sans-serif" font-size="18" font-weight="700" fill="#2D241C">Node Shapes</text>
  <rect x="40" y="170" width="320" height="170" rx="10" fill="#FFFDF7" stroke="#C7B8A2"/>
  <rect x="64" y="206" width="120" height="24" rx="6" fill="#C8D4B8" stroke="#2D241C" stroke-width="1.5"/>
  <text x="64" y="248" font-family="Source Sans 3, sans-serif" font-size="12" font-weight="600" fill="#2D241C">Person span node</text>

  <rect x="214" y="206" width="120" height="20" rx="6" fill="#C9D6E6" stroke="#2D241C" stroke-width="1.5"/>
  <text x="214" y="248" font-family="Source Sans 3, sans-serif" font-size="12" font-weight="600" fill="#2D241C">Book span node</text>

  <circle cx="124" cy="292" r="11" fill="#E6C7C0" stroke="#2D241C" stroke-width="1.5"/>
  <text x="64" y="314" font-family="Source Sans 3, sans-serif" font-size="12" font-weight="600" fill="#2D241C">Event point node</text>

  <rect x="380" y="170" width="320" height="170" rx="10" fill="#FFFDF7" stroke="#C7B8A2"/>
  <text x="404" y="202" font-family="Source Sans 3, sans-serif" font-size="13" font-weight="700" fill="#2D241C">States</text>
  <rect x="404" y="216" width="120" height="24" rx="6" fill="#C8D4B8" stroke="#2D241C" stroke-width="1.5"/>
  <text x="534" y="233" font-family="IBM Plex Mono, monospace" font-size="11" fill="#6F6254">Default</text>
  <rect x="404" y="248" width="120" height="24" rx="6" fill="#C8D4B8" stroke="#F4D19B" stroke-width="2.5"/>
  <text x="534" y="265" font-family="IBM Plex Mono, monospace" font-size="11" fill="#6F6254">Theme highlight</text>
  <rect x="404" y="280" width="120" height="24" rx="6" fill="#C8D4B8" fill-opacity="0.3" stroke="#2D241C" stroke-width="1.5"/>
  <text x="534" y="297" font-family="IBM Plex Mono, monospace" font-size="11" fill="#6F6254">Dimmed</text>

  <text x="40" y="392" font-family="Source Sans 3, sans-serif" font-size="18" font-weight="700" fill="#2D241C">Theme Chips</text>
  <rect x="40" y="412" width="660" height="120" rx="10" fill="#FFFDF7" stroke="#C7B8A2"/>
  <rect x="64" y="438" width="92" height="30" rx="15" fill="#F4D19B" stroke="#2D241C" stroke-width="1.5"/>
  <text x="80" y="457" font-family="Source Sans 3, sans-serif" font-size="12" font-weight="600" fill="#2D241C">Covenant</text>
  <rect x="166" y="438" width="92" height="30" rx="15" fill="#D4B5D4" stroke="#2D241C" stroke-width="1.5"/>
  <text x="184" y="457" font-family="Source Sans 3, sans-serif" font-size="12" font-weight="600" fill="#2D241C">Kingship</text>
  <rect x="268" y="438" width="70" height="30" rx="15" fill="#C8D4B8" stroke="#2D241C" stroke-width="1.5"/>
  <text x="288" y="457" font-family="Source Sans 3, sans-serif" font-size="12" font-weight="600" fill="#2D241C">Land</text>
  <rect x="348" y="438" width="82" height="30" rx="15" fill="#A8D5E2" stroke="#2D241C" stroke-width="1.5"/>
  <text x="369" y="457" font-family="Source Sans 3, sans-serif" font-size="12" font-weight="600" fill="#2D241C">Messiah</text>
  <rect x="440" y="438" width="88" height="30" rx="15" fill="none" stroke="#C7B8A2" stroke-width="1.5"/>
  <text x="463" y="457" font-family="Source Sans 3, sans-serif" font-size="12" font-weight="600" fill="#6F6254">Inactive</text>

  <text x="40" y="582" font-family="Source Sans 3, sans-serif" font-size="18" font-weight="700" fill="#2D241C">Period Bands + Labels</text>
  <rect x="40" y="602" width="760" height="170" rx="10" fill="#FFFDF7" stroke="#C7B8A2"/>
  <rect x="64" y="626" width="320" height="88" fill="#8B451322" stroke="#8B4513"/>
  <text x="76" y="646" font-family="IBM Plex Mono, monospace" font-size="11" font-weight="600" fill="#6F6254">PRIMEVAL HISTORY</text>
  <rect x="220" y="626" width="300" height="88" fill="#DAA52022" stroke="#DAA520"/>
  <text x="232" y="664" font-family="IBM Plex Mono, monospace" font-size="11" font-weight="600" fill="#6F6254">PATRIARCHAL PERIOD</text>
  <rect x="370" y="626" width="280" height="88" fill="#CD853F22" stroke="#CD853F"/>
  <text x="382" y="682" font-family="IBM Plex Mono, monospace" font-size="11" font-weight="600" fill="#6F6254">EGYPTIAN SOJOURN</text>
  <text x="64" y="744" font-family="Source Sans 3, sans-serif" font-size="12" fill="#6F6254">Label lanes stack vertically; overflow labels hide after lane 4.</text>

  <text x="840" y="150" font-family="Source Sans 3, sans-serif" font-size="18" font-weight="700" fill="#2D241C">Type Scale</text>
  <rect x="840" y="170" width="720" height="220" rx="10" fill="#FFFDF7" stroke="#C7B8A2"/>
  <text x="864" y="210" font-family="Cormorant Garamond, serif" font-size="28" font-weight="700" fill="#2D241C">Heading Display (28/700)</text>
  <text x="864" y="248" font-family="Source Sans 3, sans-serif" font-size="14" font-weight="700" fill="#2D241C">Section Heading (14/700)</text>
  <text x="864" y="278" font-family="Source Sans 3, sans-serif" font-size="13" font-weight="500" fill="#2D241C">Body text and node labels (13/500)</text>
  <text x="864" y="308" font-family="IBM Plex Mono, monospace" font-size="11" font-weight="600" fill="#2D241C">Monospace labels and year badges (11/600)</text>

  <text x="840" y="440" font-family="Source Sans 3, sans-serif" font-size="18" font-weight="700" fill="#2D241C">Color Swatches</text>
  <rect x="840" y="460" width="720" height="312" rx="10" fill="#FFFDF7" stroke="#C7B8A2"/>
  <rect x="864" y="488" width="90" height="44" fill="#F4D19B" stroke="#2D241C"/><text x="864" y="548" font-family="IBM Plex Mono, monospace" font-size="10" fill="#6F6254">#F4D19B</text>
  <rect x="972" y="488" width="90" height="44" fill="#D4B5D4" stroke="#2D241C"/><text x="972" y="548" font-family="IBM Plex Mono, monospace" font-size="10" fill="#6F6254">#D4B5D4</text>
  <rect x="1080" y="488" width="90" height="44" fill="#C8D4B8" stroke="#2D241C"/><text x="1080" y="548" font-family="IBM Plex Mono, monospace" font-size="10" fill="#6F6254">#C8D4B8</text>
  <rect x="1188" y="488" width="90" height="44" fill="#A8D5E2" stroke="#2D241C"/><text x="1188" y="548" font-family="IBM Plex Mono, monospace" font-size="10" fill="#6F6254">#A8D5E2</text>
  <rect x="1296" y="488" width="90" height="44" fill="#B22222" stroke="#2D241C"/><text x="1296" y="548" font-family="IBM Plex Mono, monospace" font-size="10" fill="#6F6254">#B22222</text>
  <rect x="1404" y="488" width="90" height="44" fill="#228B22" stroke="#2D241C"/><text x="1404" y="548" font-family="IBM Plex Mono, monospace" font-size="10" fill="#6F6254">#228B22</text>

  <rect x="864" y="592" width="90" height="44" fill="#2E8B57" stroke="#2D241C"/><text x="864" y="652" font-family="IBM Plex Mono, monospace" font-size="10" fill="#6F6254">#2E8B57</text>
  <rect x="972" y="592" width="90" height="44" fill="#8B4513" stroke="#2D241C"/><text x="972" y="652" font-family="IBM Plex Mono, monospace" font-size="10" fill="#6F6254">#8B4513</text>
  <rect x="1080" y="592" width="90" height="44" fill="#DAA520" stroke="#2D241C"/><text x="1080" y="652" font-family="IBM Plex Mono, monospace" font-size="10" fill="#6F6254">#DAA520</text>
  <rect x="1188" y="592" width="90" height="44" fill="#556B2F" stroke="#2D241C"/><text x="1188" y="652" font-family="IBM Plex Mono, monospace" font-size="10" fill="#6F6254">#556B2F</text>
  <rect x="1296" y="592" width="90" height="44" fill="#9932CC" stroke="#2D241C"/><text x="1296" y="652" font-family="IBM Plex Mono, monospace" font-size="10" fill="#6F6254">#9932CC</text>
  <rect x="1404" y="592" width="90" height="44" fill="#CD853F" stroke="#2D241C"/><text x="1404" y="652" font-family="IBM Plex Mono, monospace" font-size="10" fill="#6F6254">#CD853F</text>

  <text x="40" y="848" font-family="Source Sans 3, sans-serif" font-size="18" font-weight="700" fill="#2D241C">Flow States</text>
  <rect x="40" y="868" width="1520" height="292" rx="10" fill="#FFFDF7" stroke="#C7B8A2"/>
  <rect x="64" y="904" width="300" height="220" rx="8" fill="#FFFDF7" stroke="#C7B8A2"/>
  <text x="84" y="930" font-family="Source Sans 3, sans-serif" font-size="13" font-weight="700" fill="#2D241C">1. Default Browse</text>
  <text x="84" y="954" font-family="Source Sans 3, sans-serif" font-size="12" fill="#6F6254">No chips active, baseline opacity.</text>

  <rect x="388" y="904" width="300" height="220" rx="8" fill="#FFFDF7" stroke="#C7B8A2"/>
  <text x="408" y="930" font-family="Source Sans 3, sans-serif" font-size="13" font-weight="700" fill="#2D241C">2. Theme Active</text>
  <text x="408" y="954" font-family="Source Sans 3, sans-serif" font-size="12" fill="#6F6254">Matching entities outlined; others dimmed.</text>

  <rect x="712" y="904" width="300" height="220" rx="8" fill="#FFFDF7" stroke="#C7B8A2"/>
  <text x="732" y="930" font-family="Source Sans 3, sans-serif" font-size="13" font-weight="700" fill="#2D241C">3. Path Mode</text>
  <text x="732" y="954" font-family="Source Sans 3, sans-serif" font-size="12" fill="#6F6254">Breadcrumb border + relationship lines.</text>

  <rect x="1036" y="904" width="500" height="220" rx="8" fill="#FFFDF7" stroke="#C7B8A2"/>
  <text x="1056" y="930" font-family="Source Sans 3, sans-serif" font-size="13" font-weight="700" fill="#2D241C">4. Dense Year Collision</text>
  <text x="1056" y="954" font-family="Source Sans 3, sans-serif" font-size="12" fill="#6F6254">Higher priority label remains; lower priority hides.</text>
  <circle cx="1114" cy="1010" r="10" fill="#E6C7C0" stroke="#2D241C" stroke-width="1.5"/>
  <text x="1128" y="1014" font-family="Source Sans 3, sans-serif" font-size="12" font-weight="600" fill="#2D241C">Exodus</text>
  <circle cx="1124" cy="1042" r="10" fill="#E6C7C0" fill-opacity="0.4" stroke="#2D241C" stroke-width="1.5"/>
  <text x="1138" y="1046" font-family="Source Sans 3, sans-serif" font-size="12" fill="#6F6254">Passover (hidden label)</text>
</svg>
