<svg width="1728" height="1080" viewBox="0 0 1728 1080" xmlns="http://www.w3.org/2000/svg">
  <rect width="1728" height="1080" fill="#F7F1E4"/>
  <text x="28" y="38" font-family="Cormorant Garamond, serif" font-size="30" font-weight="700" fill="#2D241C">Desktop Timeline - Zoom 200%</text>
  <text x="28" y="62" font-family="Source Sans 3, sans-serif" font-size="13" fill="#6F6254">High detail: right rail open, badges visible, labels dense but collision-safe</text>

  <rect x="16" y="80" width="1696" height="88" rx="10" fill="#FFFDF7" stroke="#C7B8A2"/>
  <rect x="38" y="108" width="280" height="34" rx="8" fill="#F7F1E4" stroke="#C7B8A2"/>
  <text x="52" y="129" font-family="Source Sans 3, sans-serif" font-size="13" fill="#6F6254">Search people, events, books</text>
  <rect x="340" y="108" width="36" height="34" rx="8" fill="#FFFDF7" stroke="#C7B8A2"/><text x="354" y="129" font-family="IBM Plex Mono, monospace" font-size="12" fill="#2D241C">-</text>
  <rect x="382" y="108" width="64" height="34" rx="8" fill="#FFFDF7" stroke="#C7B8A2"/><text x="399" y="129" font-family="IBM Plex Mono, monospace" font-size="12" fill="#2D241C">200%</text>
  <rect x="452" y="108" width="36" height="34" rx="8" fill="#FFFDF7" stroke="#C7B8A2"/><text x="466" y="129" font-family="IBM Plex Mono, monospace" font-size="12" fill="#2D241C">+</text>

  <rect x="16" y="180" width="1290" height="872" rx="12" fill="#FFFDF7" stroke="#C7B8A2"/>
  <rect x="1324" y="180" width="388" height="872" rx="12" fill="#FFFDF7" stroke="#C7B8A2"/>

  <rect x="36" y="202" width="240" height="88" fill="#8B451318" stroke="#8B451355"/>
  <text x="52" y="224" font-family="IBM Plex Mono, monospace" font-size="11" font-weight="600" fill="#6F6254">PRIMEVAL HISTORY</text>
  <rect x="258" y="202" width="250" height="88" fill="#DAA52018" stroke="#DAA52055"/>
  <text x="274" y="242" font-family="IBM Plex Mono, monospace" font-size="11" font-weight="600" fill="#6F6254">PATRIARCHAL PERIOD</text>
  <rect x="468" y="202" width="220" height="88" fill="#CD853F18" stroke="#CD853F55"/>
  <text x="484" y="260" font-family="IBM Plex Mono, monospace" font-size="11" font-weight="600" fill="#6F6254">EGYPTIAN SOJOURN</text>

  <line x1="36" y1="470" x2="1290" y2="470" stroke="#E3D7C4"/>
  <line x1="36" y1="786" x2="1290" y2="786" stroke="#E3D7C4"/>
  <rect x="28" y="320" width="84" height="24" rx="6" fill="#FFFDF7" stroke="#C7B8A2"/><text x="46" y="336" font-family="Source Sans 3, sans-serif" font-size="11" font-weight="700" fill="#6F6254">EVENTS</text>
  <rect x="28" y="494" width="84" height="24" rx="6" fill="#FFFDF7" stroke="#C7B8A2"/><text x="48" y="510" font-family="Source Sans 3, sans-serif" font-size="11" font-weight="700" fill="#6F6254">PEOPLE</text>
  <rect x="28" y="810" width="84" height="24" rx="6" fill="#FFFDF7" stroke="#C7B8A2"/><text x="52" y="826" font-family="Source Sans 3, sans-serif" font-size="11" font-weight="700" fill="#6F6254">BOOKS</text>

  <circle cx="694" cy="354" r="13" fill="#E6C7C0" stroke="#228B22" stroke-width="2.5"/>
  <text x="714" y="359" font-family="Source Sans 3, sans-serif" font-size="12" font-weight="700" fill="#2D241C">Exodus from Egypt</text>
  <rect x="714" y="366" width="132" height="20" rx="6" fill="#FFFDF7" stroke="#C7B8A2"/>
  <text x="724" y="380" font-family="IBM Plex Mono, monospace" font-size="11" fill="#2D241C">c. 1446 BC</text>

  <rect x="630" y="536" width="98" height="28" rx="6" fill="#C8D4B8" stroke="#F4D19B" stroke-width="2.5"/>
  <circle cx="624" cy="532" r="11" fill="#F4D19B" stroke="#2D241C" stroke-width="1.5"/>
  <text x="620" y="536" font-family="IBM Plex Mono, monospace" font-size="9" font-weight="700" fill="#2D241C">P</text>
  <text x="646" y="555" font-family="Source Sans 3, sans-serif" font-size="12" font-weight="700" fill="#2D241C">Moses</text>

  <rect x="722" y="572" width="104" height="28" rx="6" fill="#C8D4B8" stroke="#2D241C" stroke-width="1.5"/>
  <circle cx="716" cy="568" r="11" fill="#F4D19B" stroke="#2D241C" stroke-width="1.5"/>
  <text x="712" y="572" font-family="IBM Plex Mono, monospace" font-size="9" font-weight="700" fill="#2D241C">W</text>
  <text x="738" y="591" font-family="Source Sans 3, sans-serif" font-size="12" font-weight="700" fill="#2D241C">Joshua</text>

  <rect x="802" y="844" width="152" height="24" rx="6" fill="#C9D6E6" stroke="#2D241C" stroke-width="1.5"/>
  <text x="814" y="860" font-family="Source Sans 3, sans-serif" font-size="12" font-weight="700" fill="#2D241C">Deuteronomy</text>

  <text x="1350" y="230" font-family="Source Sans 3, sans-serif" font-size="12" font-weight="700" fill="#6F6254">EVENT</text>
  <text x="1350" y="268" font-family="Cormorant Garamond, serif" font-size="32" font-weight="700" fill="#2D241C">Exodus from Egypt</text>
  <rect x="1350" y="292" width="132" height="24" rx="6" fill="#F7F1E4" stroke="#2D241C" stroke-width="1.5"/>
  <text x="1362" y="308" font-family="IBM Plex Mono, monospace" font-size="11" fill="#2D241C">c. 1446 BC</text>

  <text x="1350" y="348" font-family="Source Sans 3, sans-serif" font-size="13" fill="#2D241C">God delivered Israel from Egypt through ten plagues,</text>
  <text x="1350" y="368" font-family="Source Sans 3, sans-serif" font-size="13" fill="#2D241C">the Passover, and the Red Sea crossing.</text>

  <text x="1350" y="426" font-family="Source Sans 3, sans-serif" font-size="12" font-weight="700" fill="#6F6254">THEMES</text>
  <rect x="1350" y="440" width="92" height="28" rx="14" fill="#F4D19B" stroke="#2D241C" stroke-width="1.5"/>
  <text x="1370" y="458" font-family="Source Sans 3, sans-serif" font-size="12" font-weight="700" fill="#2D241C">Covenant</text>
  <rect x="1450" y="440" width="102" height="28" rx="14" fill="#228B2222" stroke="#228B22" stroke-width="1.5"/>
  <text x="1470" y="458" font-family="Source Sans 3, sans-serif" font-size="12" font-weight="700" fill="#2D241C">Deliverance</text>

  <text x="1350" y="520" font-family="Source Sans 3, sans-serif" font-size="12" font-weight="700" fill="#6F6254">CONNECTIONS</text>
  <rect x="1350" y="536" width="336" height="56" rx="8" fill="#F7F1E4" stroke="#C7B8A2"/>
  <text x="1366" y="558" font-family="Source Sans 3, sans-serif" font-size="13" font-weight="700" fill="#2D241C">Moses</text>
  <text x="1366" y="576" font-family="Source Sans 3, sans-serif" font-size="12" fill="#6F6254">person</text>

  <rect x="1350" y="604" width="336" height="56" rx="8" fill="#F7F1E4" stroke="#C7B8A2"/>
  <text x="1366" y="626" font-family="Source Sans 3, sans-serif" font-size="13" font-weight="700" fill="#2D241C">Exodus (Book)</text>
  <text x="1366" y="644" font-family="Source Sans 3, sans-serif" font-size="12" fill="#6F6254">book</text>

  <rect x="1338" y="996" width="352" height="42" rx="8" fill="#FFFDF7" stroke="#C7B8A2"/>
  <text x="1358" y="1022" font-family="Source Sans 3, sans-serif" font-size="12" fill="#6F6254">Rail open state - focus target for flow and copy refinement</text>
</svg>
