<svg width="430" height="932" viewBox="0 0 430 932" xmlns="http://www.w3.org/2000/svg">
  <rect width="430" height="932" fill="#F7F1E4"/>
  <text x="16" y="30" font-family="Cormorant Garamond, serif" font-size="22" font-weight="700" fill="#2D241C">Mobile Timeline - 100%</text>

  <rect x="8" y="44" width="414" height="132" rx="12" fill="#FFFDF7" stroke="#C7B8A2"/>
  <rect x="20" y="60" width="240" height="34" rx="8" fill="#F7F1E4" stroke="#C7B8A2"/>
  <text x="32" y="81" font-family="Source Sans 3, sans-serif" font-size="12" fill="#6F6254">Search timeline...</text>
  <rect x="270" y="60" width="32" height="34" rx="8" fill="#FFFDF7" stroke="#C7B8A2"/>
  <text x="282" y="82" font-family="IBM Plex Mono, monospace" font-size="12" fill="#2D241C">-</text>
  <rect x="306" y="60" width="44" height="34" rx="8" fill="#FFFDF7" stroke="#C7B8A2"/>
  <text x="316" y="82" font-family="IBM Plex Mono, monospace" font-size="12" fill="#2D241C">100</text>
  <rect x="354" y="60" width="32" height="34" rx="8" fill="#FFFDF7" stroke="#C7B8A2"/>
  <text x="366" y="82" font-family="IBM Plex Mono, monospace" font-size="12" fill="#2D241C">+</text>

  <rect x="20" y="104" width="88" height="28" rx="14" fill="#F4D19B" stroke="#2D241C" stroke-width="1.5"/>
  <text x="38" y="122" font-family="Source Sans 3, sans-serif" font-size="11" font-weight="700" fill="#2D241C">Covenant</text>
  <rect x="116" y="104" width="88" height="28" rx="14" fill="none" stroke="#C7B8A2" stroke-width="1.5"/>
  <text x="144" y="122" font-family="Source Sans 3, sans-serif" font-size="11" fill="#6F6254">Land</text>
  <rect x="212" y="104" width="94" height="28" rx="14" fill="none" stroke="#C7B8A2" stroke-width="1.5"/>
  <text x="234" y="122" font-family="Source Sans 3, sans-serif" font-size="11" fill="#6F6254">Messiah</text>

  <rect x="8" y="188" width="414" height="736" rx="12" fill="#FFFDF7" stroke="#C7B8A2"/>

  <rect x="16" y="202" width="398" height="74" fill="#8B451318" stroke="#8B451355"/>
  <text x="28" y="222" font-family="IBM Plex Mono, monospace" font-size="10" font-weight="600" fill="#6F6254">PRIMEVAL HISTORY</text>
  <rect x="112" y="202" width="230" height="74" fill="#DAA52018" stroke="#DAA52055"/>
  <text x="124" y="238" font-family="IBM Plex Mono, monospace" font-size="10" font-weight="600" fill="#6F6254">PATRIARCHAL PERIOD</text>

  <text x="20" y="304" font-family="Source Sans 3, sans-serif" font-size="10" font-weight="700" fill="#6F6254">EVENTS</text>
  <line x1="16" y1="312" x2="414" y2="312" stroke="#E3D7C4"/>
  <circle cx="228" cy="338" r="11" fill="#E6C7C0" stroke="#228B22" stroke-width="2"/>
  <text x="244" y="342" font-family="Source Sans 3, sans-serif" font-size="12" font-weight="700" fill="#2D241C">Exodus</text>
  <circle cx="246" cy="368" r="11" fill="#E6C7C0" fill-opacity="0.4" stroke="#2D241C" stroke-width="1.2"/>
  <text x="262" y="372" font-family="Source Sans 3, sans-serif" font-size="11" fill="#6F6254">Hidden at this zoom</text>

  <text x="20" y="430" font-family="Source Sans 3, sans-serif" font-size="10" font-weight="700" fill="#6F6254">PEOPLE</text>
  <line x1="16" y1="438" x2="414" y2="438" stroke="#E3D7C4"/>
  <rect x="206" y="466" width="80" height="24" rx="6" fill="#C8D4B8" stroke="#F4D19B" stroke-width="2"/>
  <text x="220" y="482" font-family="Source Sans 3, sans-serif" font-size="11" font-weight="700" fill="#2D241C">Moses</text>
  <rect x="236" y="496" width="84" height="24" rx="6" fill="#C8D4B8" stroke="#2D241C" stroke-width="1.5"/>
  <text x="250" y="512" font-family="Source Sans 3, sans-serif" font-size="11" font-weight="700" fill="#2D241C">Joshua</text>

  <text x="20" y="580" font-family="Source Sans 3, sans-serif" font-size="10" font-weight="700" fill="#6F6254">BOOKS</text>
  <line x1="16" y1="588" x2="414" y2="588" stroke="#E3D7C4"/>
  <rect x="216" y="614" width="112" height="20" rx="6" fill="#C9D6E6" stroke="#2D241C" stroke-width="1.5"/>
  <text x="226" y="628" font-family="Source Sans 3, sans-serif" font-size="11" font-weight="700" fill="#2D241C">Deuteronomy</text>

  <rect x="16" y="700" width="398" height="212" rx="12" fill="#FFFDF7" stroke="#C7B8A2"/>
  <text x="28" y="730" font-family="Source Sans 3, sans-serif" font-size="13" font-weight="700" fill="#2D241C">Mobile Overlay Rail State</text>
  <text x="28" y="752" font-family="Source Sans 3, sans-serif" font-size="11" fill="#6F6254">On tap, right rail should open as full-width overlay.</text>
  <rect x="28" y="768" width="364" height="34" rx="8" fill="#F7F1E4" stroke="#C7B8A2"/>
  <text x="40" y="789" font-family="Source Sans 3, sans-serif" font-size="12" fill="#2D241C">Exodus from Egypt</text>
  <rect x="28" y="812" width="102" height="28" rx="14" fill="#F4D19B" stroke="#2D241C" stroke-width="1.5"/>
  <text x="50" y="830" font-family="Source Sans 3, sans-serif" font-size="11" font-weight="700" fill="#2D241C">Covenant</text>
  <rect x="138" y="812" width="108" height="28" rx="14" fill="#228B2222" stroke="#228B22" stroke-width="1.5"/>
  <text x="160" y="830" font-family="Source Sans 3, sans-serif" font-size="11" font-weight="700" fill="#2D241C">Deliverance</text>
</svg>
