<svg width="1054" height="838" viewBox="0 0 1054 838" xmlns="http://www.w3.org/2000/svg">
<rect width="1054" height="838" fill="#F7F1E4"/>
<text x="20" y="34" font-family="Cormorant Garamond, serif" font-size="30" font-weight="700" fill="#2D241C">Era of the Judges</text>
<text x="20" y="58" font-family="Source Sans 3, sans-serif" font-size="13" fill="#6F6254">1406-1050 BC - Israel repeatedly fell into idolatry, oppression, repentance, and deliverance through judges.</text>
<text x="20" y="78" font-family="Source Sans 3, sans-serif" font-size="12" fill="#6F6254">Nodes included by start year in this period. Move nodes in Figma, then share updated coordinates.</text>
<rect x="10" y="100" width="1034" height="720" rx="10" fill="#FFFDF7" stroke="#C7B8A2"/>
<rect x="120" y="116" width="854" height="84" fill="#C8E6C944" stroke="#C8E6C9"/>
<text x="132" y="142" font-family="IBM Plex Mono, monospace" font-size="11" font-weight="600" fill="#6F6254">JUDGES</text>
<line x1="854.4" y1="200" x2="854.4" y2="812" stroke="#C7B8A2" stroke-width="1"/>
<text x="834.4" y="194" font-family="IBM Plex Mono, monospace" font-size="10" fill="#6F6254">1100</text>
<line x1="614.4" y1="200" x2="614.4" y2="812" stroke="#C7B8A2" stroke-width="1"/>
<text x="594.4" y="194" font-family="IBM Plex Mono, monospace" font-size="10" fill="#6F6254">1200</text>
<line x1="374.4" y1="200" x2="374.4" y2="812" stroke="#C7B8A2" stroke-width="1"/>
<text x="354.4" y="194" font-family="IBM Plex Mono, monospace" font-size="10" fill="#6F6254">1300</text>
<line x1="134.4" y1="200" x2="134.4" y2="812" stroke="#C7B8A2" stroke-width="1"/>
<text x="114.4" y="194" font-family="IBM Plex Mono, monospace" font-size="10" fill="#6F6254">1400</text>
<line x1="974.4" y1="200" x2="974.4" y2="812" stroke="#E3D7C4" stroke-width="1"/>
<line x1="734.4" y1="200" x2="734.4" y2="812" stroke="#E3D7C4" stroke-width="1"/>
<line x1="494.4" y1="200" x2="494.4" y2="812" stroke="#E3D7C4" stroke-width="1"/>
<line x1="254.4" y1="200" x2="254.4" y2="812" stroke="#E3D7C4" stroke-width="1"/>
<rect x="20" y="218" width="74" height="22" rx="6" fill="#FFFDF7" stroke="#C7B8A2"/>
<text x="36" y="233" font-family="Source Sans 3, sans-serif" font-size="11" font-weight="700" fill="#6F6254">EVENTS</text>
<rect x="20" y="292" width="74" height="22" rx="6" fill="#FFFDF7" stroke="#C7B8A2"/>
<text x="36" y="307" font-family="Source Sans 3, sans-serif" font-size="11" font-weight="700" fill="#6F6254">PEOPLE</text>
<rect x="20" y="608" width="74" height="22" rx="6" fill="#FFFDF7" stroke="#C7B8A2"/>
<text x="41" y="623" font-family="Source Sans 3, sans-serif" font-size="11" font-weight="700" fill="#6F6254">BOOKS</text>
<line x1="120" y1="270" x2="974" y2="270" stroke="#E3D7C4"/>
<line x1="120" y1="586" x2="974" y2="586" stroke="#E3D7C4"/>
<g id="person-moses">
<rect x="-168" y="390" width="288" height="24" rx="6" fill="#C8D4B8" stroke="#2D241C" stroke-width="1.5"/>
<text x="-162" y="428" font-family="Source Sans 3, sans-serif" font-size="12" font-weight="600" fill="#2D241C">Moses (Prophet)</text>
</g>
<g id="person-zipporah">
<rect x="-129.6" y="458" width="264" height="24" rx="6" fill="#C8D4B8" stroke="#2D241C" stroke-width="1.5"/>
<text x="-123.6" y="496" font-family="Source Sans 3, sans-serif" font-size="12" font-weight="600" fill="#2D241C">Zipporah (Other)</text>
</g>
<g id="person-gershom">
<rect x="-69.6" y="492" width="204" height="24" rx="6" fill="#C8D4B8" stroke="#2D241C" stroke-width="1.5"/>
<text x="-63.599999999999994" y="530" font-family="Source Sans 3, sans-serif" font-size="12" font-weight="600" fill="#2D241C">Gershom (Other)</text>
</g>
<g id="person-joshua">
<rect x="-69.6" y="526" width="264" height="24" rx="6" fill="#C8D4B8" stroke="#2D241C" stroke-width="1.5"/>
<text x="-63.599999999999994" y="564" font-family="Source Sans 3, sans-serif" font-size="12" font-weight="600" fill="#2D241C">Joshua (Warrior)</text>
</g>
<g id="person-eliezer">
<rect x="-57.599999999999994" y="560" width="204" height="24" rx="6" fill="#C8D4B8" stroke="#2D241C" stroke-width="1.5"/>
<text x="-51.599999999999994" y="598" font-family="Source Sans 3, sans-serif" font-size="12" font-weight="600" fill="#2D241C">Eliezer (Other)</text>
</g>
<g id="book-exodus-book">
<rect x="24" y="638" width="96" height="18" rx="6" fill="#C9D6E6" stroke="#2D241C" stroke-width="1.5"/>
<text x="30" y="670" font-family="Source Sans 3, sans-serif" font-size="12" font-weight="600" fill="#2D241C">Exodus (Pentateuch)</text>
</g>
<g id="book-leviticus">
<rect x="24" y="666" width="96" height="18" rx="6" fill="#C9D6E6" stroke="#2D241C" stroke-width="1.5"/>
<text x="30" y="698" font-family="Source Sans 3, sans-serif" font-size="12" font-weight="600" fill="#2D241C">Leviticus (Pentateuch)</text>
</g>
<g id="book-numbers">
<rect x="24" y="694" width="96" height="18" rx="6" fill="#C9D6E6" stroke="#2D241C" stroke-width="1.5"/>
<text x="30" y="726" font-family="Source Sans 3, sans-serif" font-size="12" font-weight="600" fill="#2D241C">Numbers (Pentateuch)</text>
</g>
<g id="event-conquest-of-canaan">
<circle cx="120" cy="258" r="10" fill="#E6C7C0" stroke="#2D241C" stroke-width="1.5"/>
<text x="134" y="262" font-family="Source Sans 3, sans-serif" font-size="12" font-weight="600" fill="#2D241C">The Conquest of Canaan (conquest)</text>
</g>
<g id="book-deuteronomy">
<rect x="120" y="722" width="18" height="18" rx="6" fill="#C9D6E6" stroke="#2D241C" stroke-width="1.5"/>
<text x="126" y="754" font-family="Source Sans 3, sans-serif" font-size="12" font-weight="600" fill="#2D241C">Deuteronomy (Pentateuch)</text>
</g>
<g id="book-joshua">
<rect x="120" y="750" width="74" height="18" rx="6" fill="#C9D6E6" stroke="#2D241C" stroke-width="1.5"/>
<text x="126" y="782" font-family="Source Sans 3, sans-serif" font-size="12" font-weight="600" fill="#2D241C">Joshua (History)</text>
</g>
<g id="event-division-of-the-land">
<circle cx="134.4" cy="258" r="10" fill="#E6C7C0" stroke="#2D241C" stroke-width="1.5"/>
<text x="148.4" y="262" font-family="Source Sans 3, sans-serif" font-size="12" font-weight="600" fill="#2D241C">Division of the Land (conquest)</text>
</g>
<g id="person-elkanah">
<rect x="782.4" y="322" width="168" height="24" rx="6" fill="#C8D4B8" stroke="#2D241C" stroke-width="1.5"/>
<text x="788.4" y="360" font-family="Source Sans 3, sans-serif" font-size="12" font-weight="600" fill="#2D241C">Elkanah (Other)</text>
</g>
<g id="person-hannah">
<rect x="782.4" y="356" width="168" height="24" rx="6" fill="#C8D4B8" stroke="#2D241C" stroke-width="1.5"/>
<text x="788.4" y="394" font-family="Source Sans 3, sans-serif" font-size="12" font-weight="600" fill="#2D241C">Hannah (Other)</text>
</g>
<g id="person-samuel">
<rect x="854.4" y="390" width="204" height="24" rx="6" fill="#C8D4B8" stroke="#2D241C" stroke-width="1.5"/>
<text x="860.4" y="428" font-family="Source Sans 3, sans-serif" font-size="12" font-weight="600" fill="#2D241C">Samuel (Prophet)</text>
</g>
<g id="book-1-samuel">
<rect x="854.4" y="638" width="216" height="18" rx="6" fill="#C9D6E6" stroke="#2D241C" stroke-width="1.5"/>
<text x="860.4" y="670" font-family="Source Sans 3, sans-serif" font-size="12" font-weight="600" fill="#2D241C">1 Samuel (History)</text>
</g>
<g id="person-jesse">
<rect x="902.4" y="424" width="192" height="24" rx="6" fill="#C8D4B8" stroke="#2D241C" stroke-width="1.5"/>
<text x="908.4" y="462" font-family="Source Sans 3, sans-serif" font-size="12" font-weight="600" fill="#2D241C">Jesse (Other)</text>
</g>
<g id="event-selection-of-king-saul">
<circle cx="974.4" cy="258" r="10" fill="#E6C7C0" stroke="#2D241C" stroke-width="1.5"/>
<text x="988.4" y="262" font-family="Source Sans 3, sans-serif" font-size="12" font-weight="600" fill="#2D241C">The Selection of King Saul (monarchy)</text>
</g>
<text x="20" y="824" font-family="IBM Plex Mono, monospace" font-size="11" fill="#6F6254">Counts: events 3, people 9, books 6, total 18</text>
</svg>