<svg width="368" height="868" viewBox="0 0 368 868" xmlns="http://www.w3.org/2000/svg">
<rect width="368" height="868" fill="#F7F1E4"/>
<text x="20" y="34" font-family="Cormorant Garamond, serif" font-size="30" font-weight="700" fill="#2D241C">Wandering</text>
<text x="20" y="58" font-family="Source Sans 3, sans-serif" font-size="13" fill="#6F6254">1446-1406 BC - Wilderness journey to Promised Land</text>
<text x="20" y="78" font-family="Source Sans 3, sans-serif" font-size="12" fill="#6F6254">Nodes included by start year in this period. Move nodes in Figma, then share updated coordinates.</text>
<rect x="10" y="100" width="348" height="750" rx="10" fill="#FFFDF7" stroke="#C7B8A2"/>
<rect x="120" y="116" width="168" height="84" fill="#D7CCC844" stroke="#D7CCC8"/>
<text x="132" y="142" font-family="IBM Plex Mono, monospace" font-size="11" font-weight="600" fill="#6F6254">WANDERING</text>
<line x1="229.2" y1="200" x2="229.2" y2="842" stroke="#C7B8A2" stroke-width="1"/>
<text x="209.2" y="194" font-family="IBM Plex Mono, monospace" font-size="10" fill="#6F6254">1420</text>
<line x1="145.2" y1="200" x2="145.2" y2="842" stroke="#C7B8A2" stroke-width="1"/>
<text x="125.19999999999999" y="194" font-family="IBM Plex Mono, monospace" font-size="10" fill="#6F6254">1440</text>
<line x1="271.20000000000005" y1="200" x2="271.20000000000005" y2="842" stroke="#E3D7C4" stroke-width="1"/>
<line x1="187.2" y1="200" x2="187.2" y2="842" stroke="#E3D7C4" stroke-width="1"/>
<rect x="20" y="218" width="74" height="22" rx="6" fill="#FFFDF7" stroke="#C7B8A2"/>
<text x="36" y="233" font-family="Source Sans 3, sans-serif" font-size="11" font-weight="700" fill="#6F6254">EVENTS</text>
<rect x="20" y="322" width="74" height="22" rx="6" fill="#FFFDF7" stroke="#C7B8A2"/>
<text x="36" y="337" font-family="Source Sans 3, sans-serif" font-size="11" font-weight="700" fill="#6F6254">PEOPLE</text>
<rect x="20" y="638" width="74" height="22" rx="6" fill="#FFFDF7" stroke="#C7B8A2"/>
<text x="41" y="653" font-family="Source Sans 3, sans-serif" font-size="11" font-weight="700" fill="#6F6254">BOOKS</text>
<line x1="120" y1="300" x2="288" y2="300" stroke="#E3D7C4"/>
<line x1="120" y1="616" x2="288" y2="616" stroke="#E3D7C4"/>
<g id="person-moses">
<rect x="-216" y="420" width="504" height="24" rx="6" fill="#C8D4B8" stroke="#2D241C" stroke-width="1.5"/>
<text x="-210" y="458" font-family="Source Sans 3, sans-serif" font-size="12" font-weight="600" fill="#2D241C">Moses (Prophet)</text>
</g>
<g id="person-nun">
<rect x="-169.8" y="454" width="294" height="24" rx="6" fill="#C8D4B8" stroke="#2D241C" stroke-width="1.5"/>
<text x="-163.8" y="492" font-family="Source Sans 3, sans-serif" font-size="12" font-weight="600" fill="#2D241C">Nun (Other)</text>
</g>
<g id="person-zipporah">
<rect x="-148.8" y="488" width="462" height="24" rx="6" fill="#C8D4B8" stroke="#2D241C" stroke-width="1.5"/>
<text x="-142.8" y="526" font-family="Source Sans 3, sans-serif" font-size="12" font-weight="600" fill="#2D241C">Zipporah (Other)</text>
</g>
<g id="person-gershom">
<rect x="-43.80000000000001" y="522" width="357" height="24" rx="6" fill="#C8D4B8" stroke="#2D241C" stroke-width="1.5"/>
<text x="-37.80000000000001" y="560" font-family="Source Sans 3, sans-serif" font-size="12" font-weight="600" fill="#2D241C">Gershom (Other)</text>
</g>
<g id="person-joshua">
<rect x="-43.80000000000001" y="556" width="462" height="24" rx="6" fill="#C8D4B8" stroke="#2D241C" stroke-width="1.5"/>
<text x="-37.80000000000001" y="594" font-family="Source Sans 3, sans-serif" font-size="12" font-weight="600" fill="#2D241C">Joshua (Warrior)</text>
</g>
<g id="person-eliezer">
<rect x="-22.80000000000001" y="590" width="357" height="24" rx="6" fill="#C8D4B8" stroke="#2D241C" stroke-width="1.5"/>
<text x="-16.80000000000001" y="628" font-family="Source Sans 3, sans-serif" font-size="12" font-weight="600" fill="#2D241C">Eliezer (Other)</text>
</g>
<g id="event-exodus">
<circle cx="120" cy="258" r="10" fill="#E6C7C0" stroke="#2D241C" stroke-width="1.5"/>
<text x="134" y="262" font-family="Source Sans 3, sans-serif" font-size="12" font-weight="600" fill="#2D241C">Exodus from Egypt (deliverance)</text>
</g>
<g id="event-mosaic-covenant">
<circle cx="120" cy="288" r="10" fill="#E6C7C0" stroke="#2D241C" stroke-width="1.5"/>
<text x="134" y="292" font-family="Source Sans 3, sans-serif" font-size="12" font-weight="600" fill="#2D241C">The Mosaic Covenant (covenant)</text>
</g>
<g id="book-exodus-book">
<rect x="120" y="668" width="168" height="18" rx="6" fill="#C9D6E6" stroke="#2D241C" stroke-width="1.5"/>
<text x="126" y="700" font-family="Source Sans 3, sans-serif" font-size="12" font-weight="600" fill="#2D241C">Exodus (Pentateuch)</text>
</g>
<g id="book-leviticus">
<rect x="120" y="696" width="168" height="18" rx="6" fill="#C9D6E6" stroke="#2D241C" stroke-width="1.5"/>
<text x="126" y="728" font-family="Source Sans 3, sans-serif" font-size="12" font-weight="600" fill="#2D241C">Leviticus (Pentateuch)</text>
</g>
<g id="book-numbers">
<rect x="120" y="724" width="168" height="18" rx="6" fill="#C9D6E6" stroke="#2D241C" stroke-width="1.5"/>
<text x="126" y="756" font-family="Source Sans 3, sans-serif" font-size="12" font-weight="600" fill="#2D241C">Numbers (Pentateuch)</text>
</g>
<g id="event-conquest-of-canaan">
<circle cx="288" cy="258" r="10" fill="#E6C7C0" stroke="#2D241C" stroke-width="1.5"/>
<text x="302" y="262" font-family="Source Sans 3, sans-serif" font-size="12" font-weight="600" fill="#2D241C">The Conquest of Canaan (conquest)</text>
</g>
<g id="book-deuteronomy">
<rect x="288" y="752" width="18" height="18" rx="6" fill="#C9D6E6" stroke="#2D241C" stroke-width="1.5"/>
<text x="294" y="784" font-family="Source Sans 3, sans-serif" font-size="12" font-weight="600" fill="#2D241C">Deuteronomy (Pentateuch)</text>
</g>
<g id="book-joshua">
<rect x="288" y="780" width="130" height="18" rx="6" fill="#C9D6E6" stroke="#2D241C" stroke-width="1.5"/>
<text x="294" y="812" font-family="Source Sans 3, sans-serif" font-size="12" font-weight="600" fill="#2D241C">Joshua (History)</text>
</g>
<text x="20" y="854" font-family="IBM Plex Mono, monospace" font-size="11" fill="#6F6254">Counts: events 3, people 6, books 5, total 14</text>
</svg>